<?xml version="1.0" standalone="no"?>
<!DOCTYPE svg PUBLIC "-//W3C//DTD SVG 20010904//EN"
 "http://www.w3.org/TR/2001/REC-SVG-20010904/DTD/svg10.dtd">
<svg version="1.0" xmlns="http://www.w3.org/2000/svg"
 width="752.000000pt" height="752.000000pt" viewBox="0 0 752.000000 752.000000"
 preserveAspectRatio="xMidYMid meet">

<g transform="translate(0.000000,752.000000) scale(0.100000,-0.100000)"
fill="#0084c7" stroke="none">
<path d="M2885 7316 c-118 -20 -183 -42 -320 -107 -246 -118 -473 -342 -586
-579 -17 -36 -35 -73 -40 -82 -29 -58 -86 -284 -91 -363 l-3 -40 -558 -3 -557
-2 2 -323 3 -322 558 -3 557 -2 0 -48 c0 -26 7 -74 15 -105 8 -32 15 -66 15
-76 0 -10 9 -43 21 -72 12 -30 28 -72 36 -94 14 -36 36 -83 75 -156 56 -105
167 -238 283 -337 59 -51 55 -48 125 -94 143 -93 319 -163 476 -188 99 -16
142 -3 189 55 l30 37 0 151 c0 92 -5 176 -14 212 -18 82 -51 194 -66 230 -55
125 -74 161 -130 245 -36 52 -94 125 -130 162 -36 37 -65 70 -65 73 0 3 166 5
369 5 l370 0 6 -57 c5 -55 14 -105 35 -200 5 -24 16 -56 25 -72 8 -17 15 -35
15 -40 0 -34 104 -222 178 -321 145 -196 446 -404 642 -445 19 -4 40 -11 45
-15 6 -4 49 -13 96 -20 95 -14 134 -7 179 33 52 47 65 116 50 272 -21 220 -41
293 -125 470 -53 110 -132 226 -215 315 l-71 75 381 3 381 2 52 -33 c224 -141
461 -205 727 -194 155 7 304 29 316 48 3 5 16 9 29 9 25 0 46 8 181 72 154 72
343 225 420 339 53 79 44 137 -36 223 -16 17 -40 43 -54 59 -14 15 -30 27 -36
27 -5 0 -10 4 -10 9 0 10 -136 116 -183 142 -88 50 -262 129 -284 129 -9 0
-36 6 -62 14 -119 38 -320 54 -446 37 -135 -18 -191 -28 -232 -42 -82 -26
-174 -63 -179 -71 -3 -4 -13 -8 -22 -9 -9 0 -37 -14 -62 -29 -25 -16 -68 -41
-96 -55 l-51 -25 -361 0 c-198 0 -363 4 -366 8 -3 5 5 18 17 29 61 54 227 271
227 297 0 5 6 17 14 25 8 9 24 41 36 71 12 30 28 69 35 85 37 87 57 180 75
355 21 193 -16 287 -121 309 -61 12 -205 -17 -349 -71 -51 -20 -182 -87 -201
-104 -8 -8 -19 -14 -23 -14 -19 0 -131 -93 -214 -178 -186 -189 -307 -423
-343 -662 -6 -36 -13 -83 -17 -105 l-7 -40 -368 -3 c-202 -1 -367 1 -367 4 0
4 24 32 53 63 80 87 98 110 154 197 144 225 208 455 201 714 -3 91 -6 109 -26
138 -43 59 -99 75 -207 58z"/>
<path d="M730 3690 l0 -320 3040 0 c1672 0 3043 -1 3048 -2 4 -2 8 142 10 320
l2 322 -3050 0 -3050 0 0 -320z"/>
<path d="M2911 3039 c-60 -42 -72 -76 -72 -208 0 -117 10 -201 38 -301 8 -30
19 -72 24 -93 5 -21 13 -45 17 -55 5 -9 26 -53 47 -97 55 -114 135 -233 215
-317 38 -39 67 -75 64 -80 -3 -4 -168 -8 -367 -8 -402 0 -357 -7 -492 72 -102
58 -277 124 -373 139 -248 40 -395 35 -592 -18 -75 -21 -194 -66 -198 -75 -2
-5 -9 -8 -17 -8 -38 0 -232 -132 -326 -222 -105 -100 -139 -151 -139 -206 0
-67 30 -115 124 -201 15 -14 39 -36 53 -49 37 -34 129 -102 166 -123 240 -135
432 -189 672 -189 127 0 228 13 322 41 34 11 67 19 74 19 6 0 27 7 47 16 58
24 126 55 142 64 8 5 38 21 65 36 28 14 58 34 69 43 16 14 63 16 406 19 l389
3 -71 -73 c-39 -40 -78 -84 -86 -98 -9 -14 -36 -51 -59 -83 -84 -115 -193
-384 -193 -474 0 -17 -5 -44 -10 -59 -6 -15 -11 -84 -11 -154 -1 -136 6 -165
53 -206 46 -42 81 -48 176 -34 48 7 92 16 97 20 6 3 30 12 55 19 274 74 543
286 717 566 30 47 92 185 113 250 37 115 40 129 51 221 6 49 14 92 18 97 4 4
173 6 376 5 l368 -3 -67 -70 c-83 -86 -162 -197 -213 -296 -47 -94 -56 -114
-87 -214 -43 -142 -51 -194 -51 -352 l0 -151 30 -38 c46 -56 95 -71 187 -55
269 46 504 175 708 387 87 90 144 169 191 259 14 28 30 59 36 70 21 40 43 96
43 110 0 15 4 26 28 72 7 13 12 36 12 52 0 16 5 42 11 58 6 15 14 60 17 98 l7
70 558 3 557 2 0 320 0 320 -557 2 -558 3 -3 40 c-3 54 -29 179 -49 235 -8 25
-18 59 -22 75 -4 17 -13 39 -19 50 -6 11 -23 45 -37 75 -83 174 -249 370 -407
483 -214 152 -552 257 -655 203 -61 -31 -77 -69 -81 -186 -8 -258 57 -489 201
-714 56 -87 74 -110 155 -197 28 -31 52 -59 52 -62 0 -4 -164 -7 -365 -7 -284
0 -367 3 -370 13 -2 6 -9 50 -15 96 -10 84 -13 98 -46 201 -59 187 -167 364
-311 508 -165 165 -302 248 -543 327 -45 15 -111 28 -165 31 -83 6 -93 4 -124
-17z"/>
</g>
</svg>
