<?xml version="1.0" encoding="UTF-8"?>
<svg width="752pt" height="752pt" version="1.1" viewBox="0 0 752 752" xmlns="http://www.w3.org/2000/svg">
 <defs>
  <clipPath id="a">
   <path d="m139.21 261h473.58v267h-473.58z"/>
  </clipPath>
 </defs>
 <path d="m425.99 257.61c12.102-5.7891 23.68-11.051 37.359-11.051 6.3125 0 12.629 0.52734 18.941 2.1055-6.3125-14.207-20.523-23.68-37.359-23.68-22.625 0-41.043 18.418-41.043 41.043v0.52734c7.8906-2.6289 15.258-5.7891 22.102-8.9453z" fill="#1977f2"/>
 <path d="m288.65 246.55c17.363 0 29.992 6.3125 42.098 12.102 5.7891 2.6328 11.051 5.2617 17.363 7.3672 0-22.625-18.418-41.043-41.043-41.043-16.312 0-30.52 9.4727-37.359 23.68 6.3125-1.5781 12.625-2.1055 18.941-2.1055z" fill="#1977f2"/>
 <path d="m458.09 449.67c0-42.621 34.73-76.824 76.824-76.824 3.6836 0 6.8398 0 9.9961 0.52734-9.9961-6.8398-22.102-10.523-34.73-10.523-34.203 0-62.617 27.887-62.617 62.617 0 12.629 3.6836 24.73 10.523 34.73 0.52734-3.6836 0.003906-6.8438 0.003906-10.527z" fill="#1977f2"/>
 <g clip-path="url(#a)">
  <path d="m579.11 349.16-68.406-67.879v0.52734c-12.102-12.629-28.941-19.996-47.883-19.996-24.207 0-44.199 24.207-87.348 24.207-43.148 0-56.828-24.207-87.348-24.207-18.941 0-35.781 7.3672-47.883 19.996l-63.145 63.672c-6.3125 4.7344-12.102 10.523-16.84 16.84-13.156 17.359-21.051 38.934-21.051 62.613 0 56.305 45.781 102.08 102.08 102.08 44.199 0 81.562-27.887 95.77-67.355 9.4727 10.523 23.152 17.363 38.938 17.363s29.469-6.8398 38.938-17.363c14.207 39.465 51.566 67.355 95.77 67.355 56.305 0 102.09-45.777 102.09-102.08 0-29.992-13.156-56.828-33.68-75.773zm-337.82 156.28c-44.199 0-80.508-35.781-80.508-80.508s36.309-79.98 80.508-79.98 80.508 35.781 80.508 80.508c0 44.727-36.305 79.98-80.508 79.98zm134.71-56.301c-13.156 0-24.207-11.051-24.207-24.207s11.051-24.207 24.207-24.207 24.207 11.051 24.207 24.207c0 13.684-11.051 24.207-24.207 24.207zm134.71 56.301c-44.199 0-80.508-35.781-80.508-80.508s35.781-80.508 80.508-80.508c44.727 0 80.508 35.781 80.508 80.508 0.003906 44.727-36.305 80.508-80.508 80.508z" fill="#1977f2"/>
 </g>
 <path d="m188.68 449.67c0-42.621 34.73-76.824 76.824-76.824 3.6836 0 6.8398 0 9.9961 0.52734-9.9961-6.8398-22.102-10.523-34.73-10.523-34.203 0-62.617 27.887-62.617 62.617 0 12.629 3.6836 24.73 10.523 34.73 0.52734-3.6836 0.003906-6.8438 0.003906-10.527z" fill="#1977f2"/>
</svg>
